<mxfile host="app.diagrams.net" modified="2023-09-21T03:04:33.723Z" agent="Mozilla/5.0 (Windows NT 10.0; Win64; x64) AppleWebKit/537.36 (KHTML, like Gecko) Chrome/117.0.0.0 Safari/537.36 Edg/117.0.2045.31" etag="301OB3Otz3gpWBE6of1t" version="21.7.4" type="onedrive">
  <diagram name="PÃ¡gina-1" id="LwFJJOokl3WeuDCuwhHA">
    <mxGraphModel grid="1" page="1" gridSize="10" guides="1" tooltips="1" connect="1" arrows="1" fold="1" pageScale="1" pageWidth="827" pageHeight="1169" math="0" shadow="0">
      <root>
        <mxCell id="0" />
        <mxCell id="1" parent="0" />
        <mxCell id="FDkysy2jenkWLIfKk26M-6" value="STUDENT" style="whiteSpace=wrap;html=1;align=center;labelBackgroundColor=none;fillColor=#f8cecc;strokeColor=#b85450;" vertex="1" parent="1">
          <mxGeometry x="160" y="420" width="100" height="40" as="geometry" />
        </mxCell>
        <mxCell id="FDkysy2jenkWLIfKk26M-7" value="TEACHER" style="whiteSpace=wrap;html=1;align=center;labelBackgroundColor=none;fillColor=#f5f5f5;strokeColor=#666666;fontColor=#333333;" vertex="1" parent="1">
          <mxGeometry x="160" y="740" width="100" height="40" as="geometry" />
        </mxCell>
        <mxCell id="FDkysy2jenkWLIfKk26M-8" value="FIRSTNAME" style="ellipse;whiteSpace=wrap;html=1;align=center;labelBackgroundColor=none;fillColor=#f8cecc;strokeColor=#b85450;" vertex="1" parent="1">
          <mxGeometry x="20" y="290" width="100" height="40" as="geometry" />
        </mxCell>
        <mxCell id="FDkysy2jenkWLIfKk26M-9" value="LASTNAME" style="ellipse;whiteSpace=wrap;html=1;align=center;labelBackgroundColor=none;fillColor=#f8cecc;strokeColor=#b85450;" vertex="1" parent="1">
          <mxGeometry x="20" y="340" width="100" height="40" as="geometry" />
        </mxCell>
        <mxCell id="FDkysy2jenkWLIfKk26M-10" value="EMAIL" style="ellipse;whiteSpace=wrap;html=1;align=center;labelBackgroundColor=none;fillColor=#f8cecc;strokeColor=#b85450;" vertex="1" parent="1">
          <mxGeometry x="20" y="500" width="100" height="40" as="geometry" />
        </mxCell>
        <mxCell id="FDkysy2jenkWLIfKk26M-11" value="ID" style="ellipse;whiteSpace=wrap;html=1;align=center;fontStyle=4;labelBackgroundColor=none;fillColor=#f8cecc;strokeColor=#b85450;" vertex="1" parent="1">
          <mxGeometry x="160" y="290" width="100" height="40" as="geometry" />
        </mxCell>
        <mxCell id="FDkysy2jenkWLIfKk26M-12" value="BIRTHDATE" style="ellipse;whiteSpace=wrap;html=1;align=center;labelBackgroundColor=none;fillColor=#f8cecc;strokeColor=#b85450;" vertex="1" parent="1">
          <mxGeometry x="130" y="500" width="100" height="40" as="geometry" />
        </mxCell>
        <mxCell id="FDkysy2jenkWLIfKk26M-13" value="ID" style="ellipse;whiteSpace=wrap;html=1;align=center;fontStyle=4;labelBackgroundColor=none;fillColor=#f5f5f5;strokeColor=#666666;fontColor=#333333;" vertex="1" parent="1">
          <mxGeometry x="120" y="610" width="100" height="40" as="geometry" />
        </mxCell>
        <mxCell id="FDkysy2jenkWLIfKk26M-14" value="FIRSTNAME" style="ellipse;whiteSpace=wrap;html=1;align=center;labelBackgroundColor=none;fillColor=#f5f5f5;strokeColor=#666666;fontColor=#333333;" vertex="1" parent="1">
          <mxGeometry x="10" y="610" width="100" height="40" as="geometry" />
        </mxCell>
        <mxCell id="FDkysy2jenkWLIfKk26M-15" value="LASTNAME" style="ellipse;whiteSpace=wrap;html=1;align=center;labelBackgroundColor=none;fillColor=#f5f5f5;strokeColor=#666666;fontColor=#333333;" vertex="1" parent="1">
          <mxGeometry x="10" y="660" width="100" height="40" as="geometry" />
        </mxCell>
        <mxCell id="FDkysy2jenkWLIfKk26M-16" value="EMAIL" style="ellipse;whiteSpace=wrap;html=1;align=center;labelBackgroundColor=none;fillColor=#f5f5f5;strokeColor=#666666;fontColor=#333333;" vertex="1" parent="1">
          <mxGeometry x="10" y="820" width="100" height="40" as="geometry" />
        </mxCell>
        <mxCell id="FDkysy2jenkWLIfKk26M-17" value="BIRTHDATE" style="ellipse;whiteSpace=wrap;html=1;align=center;labelBackgroundColor=none;fillColor=#f5f5f5;strokeColor=#666666;fontColor=#333333;" vertex="1" parent="1">
          <mxGeometry x="130" y="820" width="100" height="40" as="geometry" />
        </mxCell>
        <mxCell id="FDkysy2jenkWLIfKk26M-20" value="SUBJECT" style="whiteSpace=wrap;html=1;align=center;labelBackgroundColor=none;fillColor=#ffe6cc;strokeColor=#d79b00;" vertex="1" parent="1">
          <mxGeometry x="570" y="740" width="100" height="40" as="geometry" />
        </mxCell>
        <mxCell id="FDkysy2jenkWLIfKk26M-21" value="ID" style="ellipse;whiteSpace=wrap;html=1;align=center;fontStyle=4;labelBackgroundColor=none;fillColor=#ffe6cc;strokeColor=#d79b00;" vertex="1" parent="1">
          <mxGeometry x="710" y="740" width="100" height="40" as="geometry" />
        </mxCell>
        <mxCell id="FDkysy2jenkWLIfKk26M-23" value="NAME" style="ellipse;whiteSpace=wrap;html=1;align=center;labelBackgroundColor=none;fillColor=#ffe6cc;strokeColor=#d79b00;" vertex="1" parent="1">
          <mxGeometry x="570" y="860" width="100" height="40" as="geometry" />
        </mxCell>
        <mxCell id="FDkysy2jenkWLIfKk26M-25" value="START DATE" style="ellipse;whiteSpace=wrap;html=1;align=center;labelBackgroundColor=none;fillColor=#ffe6cc;strokeColor=#d79b00;" vertex="1" parent="1">
          <mxGeometry x="510" y="670" width="100" height="40" as="geometry" />
        </mxCell>
        <mxCell id="FDkysy2jenkWLIfKk26M-26" value="STATUS" style="ellipse;whiteSpace=wrap;html=1;align=center;labelBackgroundColor=none;fillColor=#ffe6cc;strokeColor=#d79b00;" vertex="1" parent="1">
          <mxGeometry x="630" y="810" width="100" height="40" as="geometry" />
        </mxCell>
        <mxCell id="FDkysy2jenkWLIfKk26M-27" value="COURSE" style="whiteSpace=wrap;html=1;align=center;labelBackgroundColor=none;fillColor=#d5e8d4;strokeColor=#82b366;" vertex="1" parent="1">
          <mxGeometry x="570" y="420" width="100" height="40" as="geometry" />
        </mxCell>
        <mxCell id="FDkysy2jenkWLIfKk26M-28" value="ID" style="ellipse;whiteSpace=wrap;html=1;align=center;fontStyle=4;labelBackgroundColor=none;fillColor=#d5e8d4;strokeColor=#82b366;" vertex="1" parent="1">
          <mxGeometry x="710" y="420" width="100" height="40" as="geometry" />
        </mxCell>
        <mxCell id="FDkysy2jenkWLIfKk26M-29" value="NAME" style="ellipse;whiteSpace=wrap;html=1;align=center;labelBackgroundColor=none;fillColor=#d5e8d4;strokeColor=#82b366;" vertex="1" parent="1">
          <mxGeometry x="570" y="290" width="100" height="40" as="geometry" />
        </mxCell>
        <mxCell id="FDkysy2jenkWLIfKk26M-30" value="START DATE" style="ellipse;whiteSpace=wrap;html=1;align=center;labelBackgroundColor=none;fillColor=#d5e8d4;strokeColor=#82b366;" vertex="1" parent="1">
          <mxGeometry x="510" y="350" width="100" height="40" as="geometry" />
        </mxCell>
        <mxCell id="FDkysy2jenkWLIfKk26M-31" value="DURATION" style="ellipse;whiteSpace=wrap;html=1;align=center;labelBackgroundColor=none;fillColor=#d5e8d4;strokeColor=#82b366;" vertex="1" parent="1">
          <mxGeometry x="630" y="350" width="100" height="40" as="geometry" />
        </mxCell>
        <mxCell id="FDkysy2jenkWLIfKk26M-34" value="" style="endArrow=none;html=1;rounded=0;exitX=1;exitY=0.5;exitDx=0;exitDy=0;entryX=0;entryY=0.5;entryDx=0;entryDy=0;labelBackgroundColor=none;strokeColor=#82b366;fontColor=default;fillColor=#d5e8d4;" edge="1" parent="1" source="FDkysy2jenkWLIfKk26M-27" target="FDkysy2jenkWLIfKk26M-28">
          <mxGeometry relative="1" as="geometry">
            <mxPoint x="400" y="630" as="sourcePoint" />
            <mxPoint x="560" y="630" as="targetPoint" />
          </mxGeometry>
        </mxCell>
        <mxCell id="FDkysy2jenkWLIfKk26M-37" value="" style="endArrow=none;html=1;rounded=0;entryX=0;entryY=0.5;entryDx=0;entryDy=0;exitX=1;exitY=0.5;exitDx=0;exitDy=0;labelBackgroundColor=none;strokeColor=#d79b00;fontColor=default;fillColor=#ffe6cc;" edge="1" parent="1" source="FDkysy2jenkWLIfKk26M-20" target="FDkysy2jenkWLIfKk26M-21">
          <mxGeometry relative="1" as="geometry">
            <mxPoint x="360" y="630" as="sourcePoint" />
            <mxPoint x="520" y="630" as="targetPoint" />
          </mxGeometry>
        </mxCell>
        <mxCell id="FDkysy2jenkWLIfKk26M-39" value="" style="endArrow=none;html=1;rounded=0;entryX=0.5;entryY=1;entryDx=0;entryDy=0;exitX=0.5;exitY=0;exitDx=0;exitDy=0;labelBackgroundColor=none;strokeColor=#666666;fontColor=default;fillColor=#f5f5f5;" edge="1" parent="1" source="FDkysy2jenkWLIfKk26M-7" target="FDkysy2jenkWLIfKk26M-13">
          <mxGeometry relative="1" as="geometry">
            <mxPoint x="210" y="720" as="sourcePoint" />
            <mxPoint x="210" y="670" as="targetPoint" />
          </mxGeometry>
        </mxCell>
        <mxCell id="FDkysy2jenkWLIfKk26M-42" value="" style="endArrow=none;html=1;rounded=0;exitX=0.5;exitY=0;exitDx=0;exitDy=0;spacing=2;verticalAlign=bottom;entryX=0.5;entryY=1;entryDx=0;entryDy=0;labelBackgroundColor=none;strokeColor=#b85450;fontColor=default;fillColor=#f8cecc;" edge="1" parent="1" source="FDkysy2jenkWLIfKk26M-6" target="FDkysy2jenkWLIfKk26M-11">
          <mxGeometry relative="1" as="geometry">
            <mxPoint x="360" y="630" as="sourcePoint" />
            <mxPoint x="210" y="320" as="targetPoint" />
          </mxGeometry>
        </mxCell>
        <mxCell id="FDkysy2jenkWLIfKk26M-50" value="" style="endArrow=none;html=1;rounded=0;entryX=0.5;entryY=1;entryDx=0;entryDy=0;exitX=0.75;exitY=0;exitDx=0;exitDy=0;labelBackgroundColor=none;strokeColor=#82b366;fontColor=default;fillColor=#d5e8d4;" edge="1" parent="1" source="FDkysy2jenkWLIfKk26M-27" target="FDkysy2jenkWLIfKk26M-31">
          <mxGeometry relative="1" as="geometry">
            <mxPoint x="360" y="630" as="sourcePoint" />
            <mxPoint x="520" y="630" as="targetPoint" />
          </mxGeometry>
        </mxCell>
        <mxCell id="FDkysy2jenkWLIfKk26M-54" value="STATUS" style="ellipse;whiteSpace=wrap;html=1;align=center;labelBackgroundColor=none;fillColor=#d5e8d4;strokeColor=#82b366;" vertex="1" parent="1">
          <mxGeometry x="630" y="490" width="100" height="40" as="geometry" />
        </mxCell>
        <mxCell id="FDkysy2jenkWLIfKk26M-56" value="DURATION" style="ellipse;whiteSpace=wrap;html=1;align=center;labelBackgroundColor=none;fillColor=#ffe6cc;strokeColor=#d79b00;" vertex="1" parent="1">
          <mxGeometry x="630" y="670" width="100" height="40" as="geometry" />
        </mxCell>
        <mxCell id="FDkysy2jenkWLIfKk26M-57" value="" style="endArrow=none;html=1;rounded=0;entryX=0.5;entryY=1;entryDx=0;entryDy=0;exitX=0.25;exitY=0;exitDx=0;exitDy=0;labelBackgroundColor=none;strokeColor=#82b366;fontColor=default;fillColor=#d5e8d4;" edge="1" parent="1" source="FDkysy2jenkWLIfKk26M-27" target="FDkysy2jenkWLIfKk26M-30">
          <mxGeometry relative="1" as="geometry">
            <mxPoint x="360" y="630" as="sourcePoint" />
            <mxPoint x="520" y="630" as="targetPoint" />
          </mxGeometry>
        </mxCell>
        <mxCell id="FDkysy2jenkWLIfKk26M-59" value="" style="endArrow=none;html=1;rounded=0;entryX=0.5;entryY=1;entryDx=0;entryDy=0;exitX=0.5;exitY=0;exitDx=0;exitDy=0;labelBackgroundColor=none;strokeColor=#82b366;fontColor=default;fillColor=#d5e8d4;" edge="1" parent="1" source="FDkysy2jenkWLIfKk26M-27" target="FDkysy2jenkWLIfKk26M-29">
          <mxGeometry relative="1" as="geometry">
            <mxPoint x="350" y="630" as="sourcePoint" />
            <mxPoint x="510" y="630" as="targetPoint" />
          </mxGeometry>
        </mxCell>
        <mxCell id="FDkysy2jenkWLIfKk26M-61" value="" style="endArrow=none;html=1;rounded=0;entryX=0.5;entryY=0;entryDx=0;entryDy=0;exitX=0.75;exitY=1;exitDx=0;exitDy=0;labelBackgroundColor=none;strokeColor=#d79b00;fontColor=default;fillColor=#ffe6cc;" edge="1" parent="1" source="FDkysy2jenkWLIfKk26M-20" target="FDkysy2jenkWLIfKk26M-26">
          <mxGeometry relative="1" as="geometry">
            <mxPoint x="350" y="630" as="sourcePoint" />
            <mxPoint x="510" y="630" as="targetPoint" />
          </mxGeometry>
        </mxCell>
        <mxCell id="FDkysy2jenkWLIfKk26M-63" value="" style="endArrow=none;html=1;rounded=0;entryX=0.5;entryY=1;entryDx=0;entryDy=0;exitX=0.25;exitY=0;exitDx=0;exitDy=0;labelBackgroundColor=none;strokeColor=#d79b00;fontColor=default;fillColor=#ffe6cc;" edge="1" parent="1" source="FDkysy2jenkWLIfKk26M-20" target="FDkysy2jenkWLIfKk26M-25">
          <mxGeometry relative="1" as="geometry">
            <mxPoint x="350" y="630" as="sourcePoint" />
            <mxPoint x="510" y="630" as="targetPoint" />
          </mxGeometry>
        </mxCell>
        <mxCell id="FDkysy2jenkWLIfKk26M-65" value="" style="endArrow=none;html=1;rounded=0;entryX=0.5;entryY=0;entryDx=0;entryDy=0;exitX=0.5;exitY=1;exitDx=0;exitDy=0;labelBackgroundColor=none;strokeColor=#d79b00;fontColor=default;fillColor=#ffe6cc;" edge="1" parent="1" source="FDkysy2jenkWLIfKk26M-20" target="FDkysy2jenkWLIfKk26M-23">
          <mxGeometry relative="1" as="geometry">
            <mxPoint x="350" y="630" as="sourcePoint" />
            <mxPoint x="510" y="630" as="targetPoint" />
          </mxGeometry>
        </mxCell>
        <mxCell id="FDkysy2jenkWLIfKk26M-67" value="" style="endArrow=none;html=1;rounded=0;entryX=0.5;entryY=0;entryDx=0;entryDy=0;exitX=0.683;exitY=1.025;exitDx=0;exitDy=0;labelBackgroundColor=none;strokeColor=#82b366;fontColor=default;exitPerimeter=0;fillColor=#d5e8d4;" edge="1" parent="1" source="FDkysy2jenkWLIfKk26M-27" target="FDkysy2jenkWLIfKk26M-54">
          <mxGeometry relative="1" as="geometry">
            <mxPoint x="350" y="630" as="sourcePoint" />
            <mxPoint x="510" y="630" as="targetPoint" />
          </mxGeometry>
        </mxCell>
        <mxCell id="FDkysy2jenkWLIfKk26M-69" value="" style="endArrow=none;html=1;rounded=0;entryX=0.5;entryY=1;entryDx=0;entryDy=0;exitX=0.75;exitY=0;exitDx=0;exitDy=0;labelBackgroundColor=none;strokeColor=#d79b00;fontColor=default;fillColor=#ffe6cc;" edge="1" parent="1" source="FDkysy2jenkWLIfKk26M-20" target="FDkysy2jenkWLIfKk26M-56">
          <mxGeometry relative="1" as="geometry">
            <mxPoint x="350" y="630" as="sourcePoint" />
            <mxPoint x="510" y="630" as="targetPoint" />
          </mxGeometry>
        </mxCell>
        <mxCell id="FDkysy2jenkWLIfKk26M-71" value="" style="endArrow=none;html=1;rounded=0;exitX=0.25;exitY=0;exitDx=0;exitDy=0;entryX=1;entryY=1;entryDx=0;entryDy=0;labelBackgroundColor=none;strokeColor=#666666;fontColor=default;fillColor=#f5f5f5;" edge="1" parent="1" source="FDkysy2jenkWLIfKk26M-7" target="FDkysy2jenkWLIfKk26M-14">
          <mxGeometry relative="1" as="geometry">
            <mxPoint x="360" y="630" as="sourcePoint" />
            <mxPoint x="520" y="630" as="targetPoint" />
          </mxGeometry>
        </mxCell>
        <mxCell id="FDkysy2jenkWLIfKk26M-73" value="" style="endArrow=none;html=1;rounded=0;exitX=0;exitY=0;exitDx=0;exitDy=0;entryX=1;entryY=1;entryDx=0;entryDy=0;labelBackgroundColor=none;strokeColor=#666666;fontColor=default;fillColor=#f5f5f5;" edge="1" parent="1" source="FDkysy2jenkWLIfKk26M-7" target="FDkysy2jenkWLIfKk26M-15">
          <mxGeometry relative="1" as="geometry">
            <mxPoint x="360" y="630" as="sourcePoint" />
            <mxPoint x="520" y="630" as="targetPoint" />
          </mxGeometry>
        </mxCell>
        <mxCell id="FDkysy2jenkWLIfKk26M-75" value="" style="endArrow=none;html=1;rounded=0;exitX=0.25;exitY=1;exitDx=0;exitDy=0;entryX=0.5;entryY=0;entryDx=0;entryDy=0;labelBackgroundColor=none;strokeColor=#666666;fontColor=default;fillColor=#f5f5f5;" edge="1" parent="1" source="FDkysy2jenkWLIfKk26M-7" target="FDkysy2jenkWLIfKk26M-17">
          <mxGeometry relative="1" as="geometry">
            <mxPoint x="360" y="630" as="sourcePoint" />
            <mxPoint x="520" y="630" as="targetPoint" />
          </mxGeometry>
        </mxCell>
        <mxCell id="FDkysy2jenkWLIfKk26M-77" value="" style="endArrow=none;html=1;rounded=0;exitX=0;exitY=1;exitDx=0;exitDy=0;entryX=1;entryY=0;entryDx=0;entryDy=0;labelBackgroundColor=none;strokeColor=#666666;fontColor=default;fillColor=#f5f5f5;" edge="1" parent="1" source="FDkysy2jenkWLIfKk26M-7" target="FDkysy2jenkWLIfKk26M-16">
          <mxGeometry relative="1" as="geometry">
            <mxPoint x="360" y="630" as="sourcePoint" />
            <mxPoint x="520" y="630" as="targetPoint" />
          </mxGeometry>
        </mxCell>
        <mxCell id="FDkysy2jenkWLIfKk26M-79" value="" style="endArrow=none;html=1;rounded=0;exitX=0.25;exitY=1;exitDx=0;exitDy=0;entryX=0.5;entryY=0;entryDx=0;entryDy=0;labelBackgroundColor=none;strokeColor=#b85450;fontColor=default;fillColor=#f8cecc;" edge="1" parent="1" source="FDkysy2jenkWLIfKk26M-6" target="FDkysy2jenkWLIfKk26M-12">
          <mxGeometry relative="1" as="geometry">
            <mxPoint x="360" y="630" as="sourcePoint" />
            <mxPoint x="520" y="630" as="targetPoint" />
          </mxGeometry>
        </mxCell>
        <mxCell id="FDkysy2jenkWLIfKk26M-81" value="" style="endArrow=none;html=1;rounded=0;exitX=0;exitY=1;exitDx=0;exitDy=0;entryX=1;entryY=0;entryDx=0;entryDy=0;labelBackgroundColor=none;strokeColor=#b85450;fontColor=default;fillColor=#f8cecc;" edge="1" parent="1" source="FDkysy2jenkWLIfKk26M-6" target="FDkysy2jenkWLIfKk26M-10">
          <mxGeometry relative="1" as="geometry">
            <mxPoint x="360" y="630" as="sourcePoint" />
            <mxPoint x="520" y="630" as="targetPoint" />
          </mxGeometry>
        </mxCell>
        <mxCell id="FDkysy2jenkWLIfKk26M-83" value="" style="endArrow=none;html=1;rounded=0;exitX=0;exitY=0;exitDx=0;exitDy=0;entryX=1;entryY=1;entryDx=0;entryDy=0;labelBackgroundColor=none;strokeColor=#b85450;fontColor=default;fillColor=#f8cecc;" edge="1" parent="1" source="FDkysy2jenkWLIfKk26M-6" target="FDkysy2jenkWLIfKk26M-9">
          <mxGeometry relative="1" as="geometry">
            <mxPoint x="360" y="630" as="sourcePoint" />
            <mxPoint x="520" y="630" as="targetPoint" />
          </mxGeometry>
        </mxCell>
        <mxCell id="FDkysy2jenkWLIfKk26M-85" value="" style="endArrow=none;html=1;rounded=0;exitX=0.25;exitY=0;exitDx=0;exitDy=0;entryX=1;entryY=1;entryDx=0;entryDy=0;labelBackgroundColor=none;strokeColor=#b85450;fontColor=default;fillColor=#f8cecc;" edge="1" parent="1" source="FDkysy2jenkWLIfKk26M-6" target="FDkysy2jenkWLIfKk26M-8">
          <mxGeometry relative="1" as="geometry">
            <mxPoint x="360" y="630" as="sourcePoint" />
            <mxPoint x="520" y="630" as="targetPoint" />
          </mxGeometry>
        </mxCell>
        <mxCell id="FDkysy2jenkWLIfKk26M-87" value="REGISTER" style="shape=rhombus;perimeter=rhombusPerimeter;whiteSpace=wrap;html=1;align=center;labelBackgroundColor=none;fillColor=#0050ef;strokeColor=#001DBC;fontColor=#ffffff;" vertex="1" parent="1">
          <mxGeometry x="360" y="470" width="120" height="60" as="geometry" />
        </mxCell>
        <mxCell id="FDkysy2jenkWLIfKk26M-97" value="TEACHS" style="shape=rhombus;perimeter=rhombusPerimeter;whiteSpace=wrap;html=1;align=center;labelBackgroundColor=none;fillColor=#0050ef;strokeColor=#001DBC;fontColor=#ffffff;" vertex="1" parent="1">
          <mxGeometry x="360" y="730" width="120" height="60" as="geometry" />
        </mxCell>
        <mxCell id="FDkysy2jenkWLIfKk26M-101" value="" style="endArrow=none;html=1;rounded=0;entryX=0;entryY=0.5;entryDx=0;entryDy=0;exitX=1;exitY=0.5;exitDx=0;exitDy=0;labelBackgroundColor=none;strokeColor=#001DBC;fontColor=default;fillColor=#0050ef;" edge="1" parent="1" source="FDkysy2jenkWLIfKk26M-97" target="FDkysy2jenkWLIfKk26M-20">
          <mxGeometry relative="1" as="geometry">
            <mxPoint x="360" y="630" as="sourcePoint" />
            <mxPoint x="520" y="630" as="targetPoint" />
          </mxGeometry>
        </mxCell>
        <mxCell id="FDkysy2jenkWLIfKk26M-102" value="N" style="resizable=0;html=1;whiteSpace=wrap;align=right;verticalAlign=bottom;labelBackgroundColor=none;fillColor=#F2CC8F;strokeColor=#E07A5F;fontColor=#393C56;" connectable="0" vertex="1" parent="FDkysy2jenkWLIfKk26M-101">
          <mxGeometry x="1" relative="1" as="geometry">
            <mxPoint x="-80" as="offset" />
          </mxGeometry>
        </mxCell>
        <mxCell id="FDkysy2jenkWLIfKk26M-103" value="" style="endArrow=none;html=1;rounded=0;entryX=1;entryY=0.5;entryDx=0;entryDy=0;exitX=0;exitY=0.5;exitDx=0;exitDy=0;labelBackgroundColor=none;strokeColor=#001DBC;fontColor=default;fillColor=#0050ef;" edge="1" parent="1" source="FDkysy2jenkWLIfKk26M-97" target="FDkysy2jenkWLIfKk26M-7">
          <mxGeometry relative="1" as="geometry">
            <mxPoint x="360" y="630" as="sourcePoint" />
            <mxPoint x="520" y="630" as="targetPoint" />
          </mxGeometry>
        </mxCell>
        <mxCell id="FDkysy2jenkWLIfKk26M-104" value="1" style="resizable=0;html=1;whiteSpace=wrap;align=right;verticalAlign=bottom;labelBackgroundColor=none;fillColor=#F2CC8F;strokeColor=#E07A5F;fontColor=#393C56;" connectable="0" vertex="1" parent="FDkysy2jenkWLIfKk26M-103">
          <mxGeometry x="1" relative="1" as="geometry">
            <mxPoint x="100" as="offset" />
          </mxGeometry>
        </mxCell>
        <mxCell id="FDkysy2jenkWLIfKk26M-108" value="" style="endArrow=none;html=1;rounded=0;entryX=0;entryY=0.75;entryDx=0;entryDy=0;exitX=1;exitY=0.5;exitDx=0;exitDy=0;labelBackgroundColor=none;strokeColor=#001DBC;fontColor=default;fillColor=#0050ef;" edge="1" parent="1" source="FDkysy2jenkWLIfKk26M-87" target="FDkysy2jenkWLIfKk26M-27">
          <mxGeometry relative="1" as="geometry">
            <mxPoint x="360" y="630" as="sourcePoint" />
            <mxPoint x="520" y="630" as="targetPoint" />
          </mxGeometry>
        </mxCell>
        <mxCell id="FDkysy2jenkWLIfKk26M-109" value="N" style="resizable=0;html=1;whiteSpace=wrap;align=right;verticalAlign=bottom;labelBackgroundColor=none;fillColor=#F2CC8F;strokeColor=#E07A5F;fontColor=#393C56;" connectable="0" vertex="1" parent="FDkysy2jenkWLIfKk26M-108">
          <mxGeometry x="1" relative="1" as="geometry">
            <mxPoint x="-80" y="70" as="offset" />
          </mxGeometry>
        </mxCell>
        <mxCell id="FDkysy2jenkWLIfKk26M-110" value="" style="endArrow=none;html=1;rounded=0;entryX=1;entryY=0.75;entryDx=0;entryDy=0;exitX=0;exitY=0.5;exitDx=0;exitDy=0;labelBackgroundColor=none;strokeColor=#001DBC;fontColor=default;fillColor=#0050ef;" edge="1" parent="1" source="FDkysy2jenkWLIfKk26M-87" target="FDkysy2jenkWLIfKk26M-6">
          <mxGeometry relative="1" as="geometry">
            <mxPoint x="400" y="480" as="sourcePoint" />
            <mxPoint x="490" y="480" as="targetPoint" />
          </mxGeometry>
        </mxCell>
        <mxCell id="FDkysy2jenkWLIfKk26M-111" value="N" style="resizable=0;html=1;whiteSpace=wrap;align=right;verticalAlign=bottom;labelBackgroundColor=none;fillColor=#F2CC8F;strokeColor=#E07A5F;fontColor=#393C56;" connectable="0" vertex="1" parent="FDkysy2jenkWLIfKk26M-110">
          <mxGeometry x="1" relative="1" as="geometry">
            <mxPoint x="100" y="70" as="offset" />
          </mxGeometry>
        </mxCell>
        <mxCell id="FDkysy2jenkWLIfKk26M-113" value="HAS" style="shape=rhombus;perimeter=rhombusPerimeter;whiteSpace=wrap;html=1;align=center;labelBackgroundColor=none;fillColor=#F2CC8F;strokeColor=#E07A5F;fontColor=#393C56;" vertex="1" parent="1">
          <mxGeometry x="560" y="570" width="120" height="60" as="geometry" />
        </mxCell>
        <mxCell id="FDkysy2jenkWLIfKk26M-114" value="" style="endArrow=none;html=1;rounded=0;entryX=0.5;entryY=0;entryDx=0;entryDy=0;exitX=0.5;exitY=1;exitDx=0;exitDy=0;labelBackgroundColor=none;strokeColor=#E07A5F;fontColor=default;" edge="1" parent="1" source="FDkysy2jenkWLIfKk26M-27" target="FDkysy2jenkWLIfKk26M-113">
          <mxGeometry relative="1" as="geometry">
            <mxPoint x="480" y="509.5" as="sourcePoint" />
            <mxPoint x="570" y="509.5" as="targetPoint" />
          </mxGeometry>
        </mxCell>
        <mxCell id="FDkysy2jenkWLIfKk26M-115" value="N" style="resizable=0;html=1;whiteSpace=wrap;align=right;verticalAlign=bottom;labelBackgroundColor=none;fillColor=#F2CC8F;strokeColor=#E07A5F;fontColor=#393C56;" connectable="0" vertex="1" parent="FDkysy2jenkWLIfKk26M-114">
          <mxGeometry x="1" relative="1" as="geometry">
            <mxPoint as="offset" />
          </mxGeometry>
        </mxCell>
        <mxCell id="FDkysy2jenkWLIfKk26M-116" value="" style="endArrow=none;html=1;rounded=0;entryX=0.5;entryY=1;entryDx=0;entryDy=0;exitX=0.5;exitY=0;exitDx=0;exitDy=0;labelBackgroundColor=none;strokeColor=#E07A5F;fontColor=default;" edge="1" parent="1" source="FDkysy2jenkWLIfKk26M-20" target="FDkysy2jenkWLIfKk26M-113">
          <mxGeometry relative="1" as="geometry">
            <mxPoint x="550" y="470" as="sourcePoint" />
            <mxPoint x="550" y="580" as="targetPoint" />
          </mxGeometry>
        </mxCell>
        <mxCell id="FDkysy2jenkWLIfKk26M-117" value="N" style="resizable=0;html=1;whiteSpace=wrap;align=right;verticalAlign=bottom;labelBackgroundColor=none;fillColor=#F2CC8F;strokeColor=#E07A5F;fontColor=#393C56;" connectable="0" vertex="1" parent="FDkysy2jenkWLIfKk26M-116">
          <mxGeometry x="1" relative="1" as="geometry">
            <mxPoint y="20" as="offset" />
          </mxGeometry>
        </mxCell>
        <mxCell id="FDkysy2jenkWLIfKk26M-118" value="TUTOR" style="whiteSpace=wrap;html=1;align=center;labelBackgroundColor=none;fillColor=#dae8fc;strokeColor=#6c8ebf;" vertex="1" parent="1">
          <mxGeometry x="160" y="1040" width="100" height="40" as="geometry" />
        </mxCell>
        <mxCell id="FDkysy2jenkWLIfKk26M-119" value="ID" style="ellipse;whiteSpace=wrap;html=1;align=center;fontStyle=4;labelBackgroundColor=none;fillColor=#dae8fc;strokeColor=#6c8ebf;" vertex="1" parent="1">
          <mxGeometry x="160" y="910" width="100" height="40" as="geometry" />
        </mxCell>
        <mxCell id="FDkysy2jenkWLIfKk26M-120" value="FIRSTNAME" style="ellipse;whiteSpace=wrap;html=1;align=center;labelBackgroundColor=none;fillColor=#dae8fc;strokeColor=#6c8ebf;" vertex="1" parent="1">
          <mxGeometry x="100" y="970" width="100" height="40" as="geometry" />
        </mxCell>
        <mxCell id="FDkysy2jenkWLIfKk26M-121" value="LASTNAME" style="ellipse;whiteSpace=wrap;html=1;align=center;labelBackgroundColor=none;fillColor=#dae8fc;strokeColor=#6c8ebf;" vertex="1" parent="1">
          <mxGeometry x="220" y="970" width="100" height="40" as="geometry" />
        </mxCell>
        <mxCell id="FDkysy2jenkWLIfKk26M-122" value="EMAIL" style="ellipse;whiteSpace=wrap;html=1;align=center;labelBackgroundColor=none;fillColor=#dae8fc;strokeColor=#6c8ebf;" vertex="1" parent="1">
          <mxGeometry x="100" y="1110" width="100" height="40" as="geometry" />
        </mxCell>
        <mxCell id="FDkysy2jenkWLIfKk26M-123" value="BIRTHDATE" style="ellipse;whiteSpace=wrap;html=1;align=center;labelBackgroundColor=none;fillColor=#dae8fc;strokeColor=#6c8ebf;" vertex="1" parent="1">
          <mxGeometry x="220" y="1110" width="100" height="40" as="geometry" />
        </mxCell>
        <mxCell id="FDkysy2jenkWLIfKk26M-124" value="" style="endArrow=none;html=1;rounded=0;entryX=0.5;entryY=1;entryDx=0;entryDy=0;exitX=0.5;exitY=0;exitDx=0;exitDy=0;labelBackgroundColor=none;fontColor=default;fillColor=#dae8fc;strokeColor=#6c8ebf;" edge="1" parent="1" source="FDkysy2jenkWLIfKk26M-118" target="FDkysy2jenkWLIfKk26M-119">
          <mxGeometry relative="1" as="geometry">
            <mxPoint x="210" y="1020" as="sourcePoint" />
            <mxPoint x="210" y="970" as="targetPoint" />
          </mxGeometry>
        </mxCell>
        <mxCell id="FDkysy2jenkWLIfKk26M-126" value="" style="endArrow=none;html=1;rounded=0;exitX=0.25;exitY=0;exitDx=0;exitDy=0;entryX=0.5;entryY=1;entryDx=0;entryDy=0;labelBackgroundColor=none;fontColor=default;fillColor=#dae8fc;strokeColor=#6c8ebf;" edge="1" parent="1" source="FDkysy2jenkWLIfKk26M-118" target="FDkysy2jenkWLIfKk26M-120">
          <mxGeometry relative="1" as="geometry">
            <mxPoint x="360" y="930" as="sourcePoint" />
            <mxPoint x="520" y="930" as="targetPoint" />
          </mxGeometry>
        </mxCell>
        <mxCell id="FDkysy2jenkWLIfKk26M-128" value="" style="endArrow=none;html=1;rounded=0;exitX=0.75;exitY=0;exitDx=0;exitDy=0;entryX=0.5;entryY=1;entryDx=0;entryDy=0;labelBackgroundColor=none;fontColor=default;fillColor=#dae8fc;strokeColor=#6c8ebf;" edge="1" parent="1" source="FDkysy2jenkWLIfKk26M-118" target="FDkysy2jenkWLIfKk26M-121">
          <mxGeometry relative="1" as="geometry">
            <mxPoint x="360" y="930" as="sourcePoint" />
            <mxPoint x="520" y="930" as="targetPoint" />
          </mxGeometry>
        </mxCell>
        <mxCell id="FDkysy2jenkWLIfKk26M-130" value="" style="endArrow=none;html=1;rounded=0;exitX=0.75;exitY=1;exitDx=0;exitDy=0;entryX=0.5;entryY=0;entryDx=0;entryDy=0;labelBackgroundColor=none;fontColor=default;fillColor=#dae8fc;strokeColor=#6c8ebf;" edge="1" parent="1" source="FDkysy2jenkWLIfKk26M-118" target="FDkysy2jenkWLIfKk26M-123">
          <mxGeometry relative="1" as="geometry">
            <mxPoint x="360" y="930" as="sourcePoint" />
            <mxPoint x="520" y="930" as="targetPoint" />
          </mxGeometry>
        </mxCell>
        <mxCell id="FDkysy2jenkWLIfKk26M-132" value="" style="endArrow=none;html=1;rounded=0;exitX=0.25;exitY=1;exitDx=0;exitDy=0;entryX=0.5;entryY=0;entryDx=0;entryDy=0;labelBackgroundColor=none;fontColor=default;fillColor=#dae8fc;strokeColor=#6c8ebf;" edge="1" parent="1" source="FDkysy2jenkWLIfKk26M-118" target="FDkysy2jenkWLIfKk26M-122">
          <mxGeometry relative="1" as="geometry">
            <mxPoint x="360" y="930" as="sourcePoint" />
            <mxPoint x="520" y="930" as="targetPoint" />
          </mxGeometry>
        </mxCell>
        <mxCell id="FDkysy2jenkWLIfKk26M-134" value="HELPS IN" style="shape=rhombus;perimeter=rhombusPerimeter;whiteSpace=wrap;html=1;align=center;labelBackgroundColor=none;fillColor=#0050ef;strokeColor=#001DBC;fontColor=#ffffff;" vertex="1" parent="1">
          <mxGeometry x="300" y="870" width="120" height="60" as="geometry" />
        </mxCell>
        <mxCell id="FDkysy2jenkWLIfKk26M-137" value="" style="endArrow=none;html=1;rounded=0;exitX=1;exitY=0.5;exitDx=0;exitDy=0;entryX=0.5;entryY=1;entryDx=0;entryDy=0;labelBackgroundColor=none;strokeColor=#001DBC;fontColor=default;fillColor=#0050ef;" edge="1" parent="1" source="FDkysy2jenkWLIfKk26M-118" target="FDkysy2jenkWLIfKk26M-134">
          <mxGeometry relative="1" as="geometry">
            <mxPoint x="360" y="800" as="sourcePoint" />
            <mxPoint x="520" y="800" as="targetPoint" />
            <Array as="points">
              <mxPoint x="360" y="1060" />
            </Array>
          </mxGeometry>
        </mxCell>
        <mxCell id="FDkysy2jenkWLIfKk26M-138" value="N" style="resizable=0;html=1;whiteSpace=wrap;align=right;verticalAlign=bottom;labelBackgroundColor=none;fillColor=#F2CC8F;strokeColor=#E07A5F;fontColor=#393C56;" connectable="0" vertex="1" parent="FDkysy2jenkWLIfKk26M-137">
          <mxGeometry x="1" relative="1" as="geometry">
            <mxPoint x="-4" y="20" as="offset" />
          </mxGeometry>
        </mxCell>
        <mxCell id="FDkysy2jenkWLIfKk26M-139" value="" style="endArrow=none;html=1;rounded=0;exitX=0;exitY=0.75;exitDx=0;exitDy=0;entryX=0.5;entryY=0;entryDx=0;entryDy=0;labelBackgroundColor=none;strokeColor=#001DBC;fontColor=default;fillColor=#0050ef;" edge="1" parent="1" source="FDkysy2jenkWLIfKk26M-20" target="FDkysy2jenkWLIfKk26M-134">
          <mxGeometry relative="1" as="geometry">
            <mxPoint x="316" y="890" as="sourcePoint" />
            <mxPoint x="480" y="830" as="targetPoint" />
            <Array as="points">
              <mxPoint x="520" y="820" />
              <mxPoint x="380" y="820" />
              <mxPoint x="360" y="840" />
            </Array>
          </mxGeometry>
        </mxCell>
        <mxCell id="FDkysy2jenkWLIfKk26M-140" value="N" style="resizable=0;html=1;whiteSpace=wrap;align=right;verticalAlign=bottom;labelBackgroundColor=none;fillColor=#F2CC8F;strokeColor=#E07A5F;fontColor=#393C56;" connectable="0" vertex="1" parent="FDkysy2jenkWLIfKk26M-139">
          <mxGeometry x="1" relative="1" as="geometry">
            <mxPoint x="-4" as="offset" />
          </mxGeometry>
        </mxCell>
        <mxCell id="FDkysy2jenkWLIfKk26M-141" value="PROFESSIONS" style="ellipse;whiteSpace=wrap;html=1;align=center;labelBackgroundColor=none;fillColor=#dae8fc;strokeColor=#6c8ebf;" vertex="1" parent="1">
          <mxGeometry x="10" y="1010" width="100" height="40" as="geometry" />
        </mxCell>
        <mxCell id="FDkysy2jenkWLIfKk26M-144" value="" style="endArrow=none;html=1;rounded=0;entryX=1;entryY=0.5;entryDx=0;entryDy=0;exitX=0;exitY=0.25;exitDx=0;exitDy=0;labelBackgroundColor=none;fontColor=default;fillColor=#dae8fc;strokeColor=#6c8ebf;" edge="1" parent="1" source="FDkysy2jenkWLIfKk26M-118" target="FDkysy2jenkWLIfKk26M-141">
          <mxGeometry relative="1" as="geometry">
            <mxPoint x="360" y="800" as="sourcePoint" />
            <mxPoint x="520" y="800" as="targetPoint" />
          </mxGeometry>
        </mxCell>
        <mxCell id="FDkysy2jenkWLIfKk26M-146" value="" style="endArrow=none;html=1;rounded=0;entryX=1;entryY=0.5;entryDx=0;entryDy=0;exitX=0;exitY=0.25;exitDx=0;exitDy=0;labelBackgroundColor=none;strokeColor=#666666;fontColor=default;fillColor=#f5f5f5;" edge="1" parent="1" source="FDkysy2jenkWLIfKk26M-7" target="FDkysy2jenkWLIfKk26M-148">
          <mxGeometry relative="1" as="geometry">
            <mxPoint x="150" y="760" as="sourcePoint" />
            <mxPoint x="520" y="500" as="targetPoint" />
          </mxGeometry>
        </mxCell>
        <mxCell id="FDkysy2jenkWLIfKk26M-148" value="PROFESSIONS" style="ellipse;whiteSpace=wrap;html=1;align=center;labelBackgroundColor=none;fillColor=#f5f5f5;strokeColor=#666666;fontColor=#333333;" vertex="1" parent="1">
          <mxGeometry x="10" y="710" width="100" height="40" as="geometry" />
        </mxCell>
        <mxCell id="FDkysy2jenkWLIfKk26M-149" value="ADDRESS" style="ellipse;whiteSpace=wrap;html=1;align=center;labelBackgroundColor=none;fillColor=#f8cecc;strokeColor=#b85450;" vertex="1" parent="1">
          <mxGeometry x="20" y="390" width="100" height="40" as="geometry" />
        </mxCell>
        <mxCell id="FDkysy2jenkWLIfKk26M-150" value="" style="endArrow=none;html=1;rounded=0;exitX=0;exitY=0.25;exitDx=0;exitDy=0;entryX=1;entryY=0.5;entryDx=0;entryDy=0;labelBackgroundColor=none;strokeColor=#b85450;fontColor=default;fillColor=#f8cecc;" edge="1" parent="1" source="FDkysy2jenkWLIfKk26M-6" target="FDkysy2jenkWLIfKk26M-149">
          <mxGeometry relative="1" as="geometry">
            <mxPoint x="105" y="490" as="sourcePoint" />
            <mxPoint x="440" y="700" as="targetPoint" />
          </mxGeometry>
        </mxCell>
        <mxCell id="FDkysy2jenkWLIfKk26M-152" value="CERTIFICATION" style="whiteSpace=wrap;html=1;align=center;labelBackgroundColor=none;fillColor=#F2CC8F;strokeColor=#E07A5F;fontColor=#393C56;" vertex="1" parent="1">
          <mxGeometry x="620" y="150" width="120" height="40" as="geometry" />
        </mxCell>
        <mxCell id="FDkysy2jenkWLIfKk26M-154" value="EXP. DATE" style="ellipse;whiteSpace=wrap;html=1;align=center;labelBackgroundColor=none;fillColor=#F2CC8F;strokeColor=#E07A5F;fontColor=#393C56;" vertex="1" parent="1">
          <mxGeometry x="690" y="80" width="100" height="40" as="geometry" />
        </mxCell>
        <mxCell id="FDkysy2jenkWLIfKk26M-156" value="ID" style="ellipse;whiteSpace=wrap;html=1;align=center;fontStyle=4;labelBackgroundColor=none;fillColor=#F2CC8F;strokeColor=#E07A5F;fontColor=#393C56;" vertex="1" parent="1">
          <mxGeometry x="630" y="20" width="100" height="40" as="geometry" />
        </mxCell>
        <mxCell id="FDkysy2jenkWLIfKk26M-164" value="" style="endArrow=none;html=1;rounded=0;exitX=0.75;exitY=0;exitDx=0;exitDy=0;entryX=0.437;entryY=1.042;entryDx=0;entryDy=0;entryPerimeter=0;labelBackgroundColor=none;strokeColor=#E07A5F;fontColor=default;" edge="1" parent="1" source="FDkysy2jenkWLIfKk26M-152" target="FDkysy2jenkWLIfKk26M-154">
          <mxGeometry relative="1" as="geometry">
            <mxPoint x="830" y="360" as="sourcePoint" />
            <mxPoint x="990" y="360" as="targetPoint" />
          </mxGeometry>
        </mxCell>
        <mxCell id="FDkysy2jenkWLIfKk26M-166" value="" style="endArrow=none;html=1;rounded=0;exitX=0.5;exitY=0;exitDx=0;exitDy=0;entryX=0.5;entryY=1;entryDx=0;entryDy=0;labelBackgroundColor=none;strokeColor=#E07A5F;fontColor=default;" edge="1" parent="1" source="FDkysy2jenkWLIfKk26M-152" target="FDkysy2jenkWLIfKk26M-156">
          <mxGeometry relative="1" as="geometry">
            <mxPoint x="830" y="360" as="sourcePoint" />
            <mxPoint x="620" y="120" as="targetPoint" />
          </mxGeometry>
        </mxCell>
        <mxCell id="FDkysy2jenkWLIfKk26M-168" value="STATUS" style="ellipse;whiteSpace=wrap;html=1;align=center;labelBackgroundColor=none;fillColor=#F2CC8F;strokeColor=#E07A5F;fontColor=#393C56;" vertex="1" parent="1">
          <mxGeometry x="570" y="80" width="100" height="40" as="geometry" />
        </mxCell>
        <mxCell id="FDkysy2jenkWLIfKk26M-169" value="" style="endArrow=none;html=1;rounded=0;exitX=0.308;exitY=0.008;exitDx=0;exitDy=0;entryX=0.5;entryY=1;entryDx=0;entryDy=0;exitPerimeter=0;labelBackgroundColor=none;strokeColor=#E07A5F;fontColor=default;" edge="1" parent="1" source="FDkysy2jenkWLIfKk26M-152" target="FDkysy2jenkWLIfKk26M-168">
          <mxGeometry relative="1" as="geometry">
            <mxPoint x="575" y="220" as="sourcePoint" />
            <mxPoint x="910" y="430" as="targetPoint" />
          </mxGeometry>
        </mxCell>
        <mxCell id="FDkysy2jenkWLIfKk26M-171" value="HAS" style="shape=rhombus;perimeter=rhombusPerimeter;whiteSpace=wrap;html=1;align=center;labelBackgroundColor=none;fillColor=#0050ef;strokeColor=#001DBC;fontColor=#ffffff;" vertex="1" parent="1">
          <mxGeometry x="430" y="100" width="120" height="60" as="geometry" />
        </mxCell>
        <mxCell id="FDkysy2jenkWLIfKk26M-177" value="" style="endArrow=none;html=1;rounded=0;exitX=1;exitY=0.5;exitDx=0;exitDy=0;entryX=0;entryY=0.5;entryDx=0;entryDy=0;labelBackgroundColor=none;strokeColor=#001DBC;fontColor=default;fillColor=#0050ef;" edge="1" parent="1" source="FDkysy2jenkWLIfKk26M-6" target="FDkysy2jenkWLIfKk26M-171">
          <mxGeometry relative="1" as="geometry">
            <mxPoint x="350" y="140" as="sourcePoint" />
            <mxPoint x="510" y="140" as="targetPoint" />
            <Array as="points">
              <mxPoint x="390" y="440" />
              <mxPoint x="400" y="430" />
              <mxPoint x="400" y="140" />
              <mxPoint x="410" y="130" />
            </Array>
          </mxGeometry>
        </mxCell>
        <mxCell id="FDkysy2jenkWLIfKk26M-178" value="1" style="resizable=0;html=1;whiteSpace=wrap;align=right;verticalAlign=bottom;labelBackgroundColor=none;fillColor=#F2CC8F;strokeColor=#E07A5F;fontColor=#393C56;" connectable="0" vertex="1" parent="FDkysy2jenkWLIfKk26M-177">
          <mxGeometry x="1" relative="1" as="geometry">
            <mxPoint y="20" as="offset" />
          </mxGeometry>
        </mxCell>
        <mxCell id="xbHRxE1utlugfbBY3zVR-5" value="1" style="resizable=0;html=1;whiteSpace=wrap;align=right;verticalAlign=bottom;labelBackgroundColor=none;fillColor=#F2CC8F;strokeColor=#E07A5F;fontColor=#393C56;" connectable="0" vertex="1" parent="FDkysy2jenkWLIfKk26M-177">
          <mxGeometry x="1" relative="1" as="geometry">
            <mxPoint x="70" y="130" as="offset" />
          </mxGeometry>
        </mxCell>
        <mxCell id="FDkysy2jenkWLIfKk26M-179" value="" style="endArrow=none;html=1;rounded=0;exitX=0;exitY=0.5;exitDx=0;exitDy=0;entryX=0.5;entryY=1;entryDx=0;entryDy=0;labelBackgroundColor=none;strokeColor=#001DBC;fontColor=default;fillColor=#0050ef;" edge="1" parent="1" source="FDkysy2jenkWLIfKk26M-27" target="xbHRxE1utlugfbBY3zVR-2">
          <mxGeometry relative="1" as="geometry">
            <mxPoint x="380" y="420" as="sourcePoint" />
            <mxPoint x="480" y="350" as="targetPoint" />
            <Array as="points">
              <mxPoint x="490" y="440" />
            </Array>
          </mxGeometry>
        </mxCell>
        <mxCell id="FDkysy2jenkWLIfKk26M-180" value="N" style="resizable=0;html=1;whiteSpace=wrap;align=right;verticalAlign=bottom;labelBackgroundColor=none;fillColor=#F2CC8F;strokeColor=#E07A5F;fontColor=#393C56;" connectable="0" vertex="1" parent="FDkysy2jenkWLIfKk26M-179">
          <mxGeometry x="1" relative="1" as="geometry">
            <mxPoint x="10" as="offset" />
          </mxGeometry>
        </mxCell>
        <mxCell id="FDkysy2jenkWLIfKk26M-181" value="" style="endArrow=none;html=1;rounded=0;exitX=0;exitY=0.25;exitDx=0;exitDy=0;entryX=1;entryY=0.5;entryDx=0;entryDy=0;labelBackgroundColor=none;strokeColor=#001DBC;fontColor=default;fillColor=#0050ef;" edge="1" parent="1" source="FDkysy2jenkWLIfKk26M-152" target="FDkysy2jenkWLIfKk26M-171">
          <mxGeometry relative="1" as="geometry">
            <mxPoint x="580" y="340" as="sourcePoint" />
            <mxPoint x="490" y="270" as="targetPoint" />
            <Array as="points" />
          </mxGeometry>
        </mxCell>
        <mxCell id="FDkysy2jenkWLIfKk26M-182" value="N" style="resizable=0;html=1;whiteSpace=wrap;align=right;verticalAlign=bottom;labelBackgroundColor=none;fillColor=#F2CC8F;strokeColor=#E07A5F;fontColor=#393C56;" connectable="0" vertex="1" parent="FDkysy2jenkWLIfKk26M-181">
          <mxGeometry x="1" relative="1" as="geometry">
            <mxPoint as="offset" />
          </mxGeometry>
        </mxCell>
        <mxCell id="xbHRxE1utlugfbBY3zVR-2" value="REPRESENTS" style="shape=rhombus;perimeter=rhombusPerimeter;whiteSpace=wrap;html=1;align=center;labelBackgroundColor=none;fillColor=#0050ef;strokeColor=#001DBC;fontColor=#ffffff;" vertex="1" parent="1">
          <mxGeometry x="430" y="180" width="120" height="60" as="geometry" />
        </mxCell>
        <mxCell id="xbHRxE1utlugfbBY3zVR-3" value="" style="endArrow=none;html=1;rounded=0;exitX=0;exitY=0.75;exitDx=0;exitDy=0;entryX=1;entryY=0.5;entryDx=0;entryDy=0;labelBackgroundColor=none;strokeColor=#001DBC;fontColor=default;fillColor=#0050ef;" edge="1" parent="1" source="FDkysy2jenkWLIfKk26M-152" target="xbHRxE1utlugfbBY3zVR-2">
          <mxGeometry relative="1" as="geometry">
            <mxPoint x="444" y="250" as="sourcePoint" />
            <mxPoint x="404" y="290" as="targetPoint" />
            <Array as="points" />
          </mxGeometry>
        </mxCell>
        <mxCell id="xbHRxE1utlugfbBY3zVR-4" value="N" style="resizable=0;html=1;whiteSpace=wrap;align=right;verticalAlign=bottom;labelBackgroundColor=none;fillColor=#F2CC8F;strokeColor=#E07A5F;fontColor=#393C56;" connectable="0" vertex="1" parent="xbHRxE1utlugfbBY3zVR-3">
          <mxGeometry x="1" relative="1" as="geometry">
            <mxPoint x="10" as="offset" />
          </mxGeometry>
        </mxCell>
        <mxCell id="xbHRxE1utlugfbBY3zVR-17" value="LESSON" style="whiteSpace=wrap;html=1;align=center;labelBackgroundColor=none;fillColor=#fff2cc;strokeColor=#d6b656;" vertex="1" parent="1">
          <mxGeometry x="570" y="1040" width="100" height="40" as="geometry" />
        </mxCell>
        <mxCell id="xbHRxE1utlugfbBY3zVR-18" value="ID" style="ellipse;whiteSpace=wrap;html=1;align=center;fontStyle=4;labelBackgroundColor=none;fillColor=#fff2cc;strokeColor=#d6b656;" vertex="1" parent="1">
          <mxGeometry x="720" y="1010" width="100" height="40" as="geometry" />
        </mxCell>
        <mxCell id="xbHRxE1utlugfbBY3zVR-21" value="TOPIC" style="ellipse;whiteSpace=wrap;html=1;align=center;labelBackgroundColor=none;fillColor=#fff2cc;strokeColor=#d6b656;" vertex="1" parent="1">
          <mxGeometry x="510" y="1110" width="100" height="40" as="geometry" />
        </mxCell>
        <mxCell id="xbHRxE1utlugfbBY3zVR-22" value="DATE TIME" style="ellipse;whiteSpace=wrap;html=1;align=center;labelBackgroundColor=none;fillColor=#fff2cc;strokeColor=#d6b656;" vertex="1" parent="1">
          <mxGeometry x="630" y="1110" width="100" height="40" as="geometry" />
        </mxCell>
        <mxCell id="xbHRxE1utlugfbBY3zVR-23" value="" style="endArrow=none;html=1;rounded=0;entryX=0;entryY=0.5;entryDx=0;entryDy=0;exitX=1;exitY=0.25;exitDx=0;exitDy=0;labelBackgroundColor=none;strokeColor=#d6b656;fontColor=default;fillColor=#fff2cc;" edge="1" parent="1" source="xbHRxE1utlugfbBY3zVR-17" target="xbHRxE1utlugfbBY3zVR-18">
          <mxGeometry relative="1" as="geometry">
            <mxPoint x="620" y="1020" as="sourcePoint" />
            <mxPoint x="620" y="970" as="targetPoint" />
          </mxGeometry>
        </mxCell>
        <mxCell id="xbHRxE1utlugfbBY3zVR-26" value="" style="endArrow=none;html=1;rounded=0;exitX=0.75;exitY=1;exitDx=0;exitDy=0;entryX=0.5;entryY=0;entryDx=0;entryDy=0;labelBackgroundColor=none;strokeColor=#d6b656;fontColor=default;fillColor=#fff2cc;" edge="1" parent="1" source="xbHRxE1utlugfbBY3zVR-17" target="xbHRxE1utlugfbBY3zVR-22">
          <mxGeometry relative="1" as="geometry">
            <mxPoint x="770" y="930" as="sourcePoint" />
            <mxPoint x="930" y="930" as="targetPoint" />
          </mxGeometry>
        </mxCell>
        <mxCell id="xbHRxE1utlugfbBY3zVR-27" value="" style="endArrow=none;html=1;rounded=0;exitX=0.25;exitY=1;exitDx=0;exitDy=0;entryX=0.5;entryY=0;entryDx=0;entryDy=0;labelBackgroundColor=none;strokeColor=#d6b656;fontColor=default;fillColor=#fff2cc;" edge="1" parent="1" source="xbHRxE1utlugfbBY3zVR-17" target="xbHRxE1utlugfbBY3zVR-21">
          <mxGeometry relative="1" as="geometry">
            <mxPoint x="770" y="930" as="sourcePoint" />
            <mxPoint x="930" y="930" as="targetPoint" />
          </mxGeometry>
        </mxCell>
        <mxCell id="xbHRxE1utlugfbBY3zVR-28" value="PRESENT STUDENTS" style="ellipse;whiteSpace=wrap;html=1;align=center;labelBackgroundColor=none;fillColor=#fff2cc;strokeColor=#d6b656;" vertex="1" parent="1">
          <mxGeometry x="720" y="1070" width="100" height="40" as="geometry" />
        </mxCell>
        <mxCell id="xbHRxE1utlugfbBY3zVR-29" value="" style="endArrow=none;html=1;rounded=0;labelBackgroundColor=none;strokeColor=#d6b656;fontColor=default;exitX=1;exitY=0.75;exitDx=0;exitDy=0;entryX=0;entryY=0.5;entryDx=0;entryDy=0;fillColor=#fff2cc;" edge="1" parent="1" source="xbHRxE1utlugfbBY3zVR-17" target="xbHRxE1utlugfbBY3zVR-28">
          <mxGeometry relative="1" as="geometry">
            <mxPoint x="690" y="1070" as="sourcePoint" />
            <mxPoint x="710" y="1060" as="targetPoint" />
          </mxGeometry>
        </mxCell>
        <mxCell id="xbHRxE1utlugfbBY3zVR-34" value="HAS" style="shape=rhombus;perimeter=rhombusPerimeter;whiteSpace=wrap;html=1;align=center;labelBackgroundColor=none;fillColor=#0050ef;strokeColor=#001DBC;fontColor=#ffffff;" vertex="1" parent="1">
          <mxGeometry x="430" y="870" width="120" height="60" as="geometry" />
        </mxCell>
        <mxCell id="xbHRxE1utlugfbBY3zVR-35" value="" style="endArrow=none;html=1;rounded=0;exitX=0.137;exitY=1.042;exitDx=0;exitDy=0;entryX=0.5;entryY=0;entryDx=0;entryDy=0;labelBackgroundColor=none;strokeColor=#001DBC;fontColor=default;exitPerimeter=0;fillColor=#0050ef;" edge="1" parent="1" source="FDkysy2jenkWLIfKk26M-20" target="xbHRxE1utlugfbBY3zVR-34">
          <mxGeometry relative="1" as="geometry">
            <mxPoint x="587" y="769.99" as="sourcePoint" />
            <mxPoint x="377" y="869.99" as="targetPoint" />
            <Array as="points">
              <mxPoint x="530" y="840" />
              <mxPoint x="500" y="840" />
              <mxPoint x="490" y="850" />
            </Array>
          </mxGeometry>
        </mxCell>
        <mxCell id="xbHRxE1utlugfbBY3zVR-36" value="N" style="resizable=0;html=1;whiteSpace=wrap;align=right;verticalAlign=bottom;labelBackgroundColor=none;fillColor=#F2CC8F;strokeColor=#E07A5F;fontColor=#393C56;" connectable="0" vertex="1" parent="xbHRxE1utlugfbBY3zVR-35">
          <mxGeometry x="1" relative="1" as="geometry">
            <mxPoint x="20" as="offset" />
          </mxGeometry>
        </mxCell>
        <mxCell id="xbHRxE1utlugfbBY3zVR-37" value="" style="endArrow=none;html=1;rounded=0;exitX=0;exitY=0.25;exitDx=0;exitDy=0;labelBackgroundColor=none;strokeColor=#001DBC;fontColor=default;entryX=0.5;entryY=1;entryDx=0;entryDy=0;fillColor=#0050ef;" edge="1" parent="1" source="xbHRxE1utlugfbBY3zVR-17" target="xbHRxE1utlugfbBY3zVR-34">
          <mxGeometry relative="1" as="geometry">
            <mxPoint x="595" y="1060" as="sourcePoint" />
            <mxPoint x="385" y="920" as="targetPoint" />
            <Array as="points">
              <mxPoint x="520" y="1050" />
              <mxPoint x="490" y="1030" />
            </Array>
          </mxGeometry>
        </mxCell>
        <mxCell id="xbHRxE1utlugfbBY3zVR-38" value="N" style="resizable=0;html=1;whiteSpace=wrap;align=right;verticalAlign=bottom;labelBackgroundColor=none;fillColor=#F2CC8F;strokeColor=#E07A5F;fontColor=#393C56;" connectable="0" vertex="1" parent="xbHRxE1utlugfbBY3zVR-37">
          <mxGeometry x="1" relative="1" as="geometry">
            <mxPoint x="20" y="20" as="offset" />
          </mxGeometry>
        </mxCell>
        <mxCell id="xbHRxE1utlugfbBY3zVR-39" value="PRICE" style="ellipse;whiteSpace=wrap;html=1;align=center;labelBackgroundColor=none;fillColor=#d5e8d4;strokeColor=#82b366;" vertex="1" parent="1">
          <mxGeometry x="510" y="490" width="100" height="40" as="geometry" />
        </mxCell>
        <mxCell id="xbHRxE1utlugfbBY3zVR-40" value="" style="endArrow=none;html=1;rounded=0;entryX=0.5;entryY=0;entryDx=0;entryDy=0;exitX=0.25;exitY=1;exitDx=0;exitDy=0;labelBackgroundColor=none;strokeColor=#82b366;fontColor=default;fillColor=#d5e8d4;" edge="1" parent="1" source="FDkysy2jenkWLIfKk26M-27" target="xbHRxE1utlugfbBY3zVR-39">
          <mxGeometry relative="1" as="geometry">
            <mxPoint x="500" y="460" as="sourcePoint" />
            <mxPoint x="390" y="630" as="targetPoint" />
          </mxGeometry>
        </mxCell>
        <mxCell id="xbHRxE1utlugfbBY3zVR-41" value="" style="endArrow=none;html=1;rounded=0;entryX=1;entryY=0.5;entryDx=0;entryDy=0;exitX=0;exitY=0.75;exitDx=0;exitDy=0;labelBackgroundColor=none;strokeColor=#666666;fontColor=default;fillColor=#f5f5f5;" edge="1" parent="1" source="FDkysy2jenkWLIfKk26M-7" target="xbHRxE1utlugfbBY3zVR-42">
          <mxGeometry relative="1" as="geometry">
            <mxPoint x="160" y="800" as="sourcePoint" />
            <mxPoint x="520" y="550" as="targetPoint" />
          </mxGeometry>
        </mxCell>
        <mxCell id="xbHRxE1utlugfbBY3zVR-42" value="SALARY" style="ellipse;whiteSpace=wrap;html=1;align=center;labelBackgroundColor=none;fillColor=#f5f5f5;strokeColor=#666666;fontColor=#333333;" vertex="1" parent="1">
          <mxGeometry x="10" y="770" width="100" height="40" as="geometry" />
        </mxCell>
        <mxCell id="xbHRxE1utlugfbBY3zVR-43" value="SALARY" style="ellipse;whiteSpace=wrap;html=1;align=center;labelBackgroundColor=none;fillColor=#dae8fc;strokeColor=#6c8ebf;" vertex="1" parent="1">
          <mxGeometry x="10" y="1070" width="100" height="40" as="geometry" />
        </mxCell>
        <mxCell id="xbHRxE1utlugfbBY3zVR-44" value="" style="endArrow=none;html=1;rounded=0;entryX=1;entryY=0.5;entryDx=0;entryDy=0;exitX=0;exitY=0.75;exitDx=0;exitDy=0;labelBackgroundColor=none;fontColor=default;fillColor=#dae8fc;strokeColor=#6c8ebf;" edge="1" parent="1" source="FDkysy2jenkWLIfKk26M-118" target="xbHRxE1utlugfbBY3zVR-43">
          <mxGeometry relative="1" as="geometry">
            <mxPoint x="160" y="1070" as="sourcePoint" />
            <mxPoint x="520" y="850" as="targetPoint" />
          </mxGeometry>
        </mxCell>
        <mxCell id="xbHRxE1utlugfbBY3zVR-45" value="" style="endArrow=none;html=1;rounded=0;exitX=0;exitY=0.75;exitDx=0;exitDy=0;entryX=1;entryY=0.5;entryDx=0;entryDy=0;labelBackgroundColor=none;strokeColor=#b85450;fontColor=default;fillColor=#f8cecc;" edge="1" parent="1" source="FDkysy2jenkWLIfKk26M-6" target="xbHRxE1utlugfbBY3zVR-46">
          <mxGeometry relative="1" as="geometry">
            <mxPoint x="160" y="490" as="sourcePoint" />
            <mxPoint x="440" y="760" as="targetPoint" />
          </mxGeometry>
        </mxCell>
        <mxCell id="xbHRxE1utlugfbBY3zVR-46" value="PAYMENTS" style="ellipse;whiteSpace=wrap;html=1;align=center;labelBackgroundColor=none;fillColor=#f8cecc;strokeColor=#b85450;" vertex="1" parent="1">
          <mxGeometry x="20" y="450" width="100" height="40" as="geometry" />
        </mxCell>
        <mxCell id="xbHRxE1utlugfbBY3zVR-47" value="PAYMENT" style="whiteSpace=wrap;html=1;align=center;labelBackgroundColor=none;fillColor=#e1d5e7;strokeColor=#9673a6;" vertex="1" parent="1">
          <mxGeometry x="150" y="140" width="120" height="40" as="geometry" />
        </mxCell>
        <mxCell id="xbHRxE1utlugfbBY3zVR-48" value="DATE TIME" style="ellipse;whiteSpace=wrap;html=1;align=center;labelBackgroundColor=none;fillColor=#e1d5e7;strokeColor=#9673a6;" vertex="1" parent="1">
          <mxGeometry x="20" y="110" width="100" height="40" as="geometry" />
        </mxCell>
        <mxCell id="xbHRxE1utlugfbBY3zVR-49" value="ID" style="ellipse;whiteSpace=wrap;html=1;align=center;fontStyle=4;labelBackgroundColor=none;fillColor=#e1d5e7;strokeColor=#9673a6;" vertex="1" parent="1">
          <mxGeometry x="160" y="10" width="100" height="40" as="geometry" />
        </mxCell>
        <mxCell id="xbHRxE1utlugfbBY3zVR-50" value="" style="endArrow=none;html=1;rounded=0;exitX=0;exitY=0.25;exitDx=0;exitDy=0;entryX=1;entryY=0.5;entryDx=0;entryDy=0;labelBackgroundColor=none;strokeColor=#9673a6;fontColor=default;fillColor=#e1d5e7;" edge="1" parent="1" source="xbHRxE1utlugfbBY3zVR-47" target="xbHRxE1utlugfbBY3zVR-48">
          <mxGeometry relative="1" as="geometry">
            <mxPoint x="360" y="350" as="sourcePoint" />
            <mxPoint x="520" y="350" as="targetPoint" />
          </mxGeometry>
        </mxCell>
        <mxCell id="xbHRxE1utlugfbBY3zVR-51" value="" style="endArrow=none;html=1;rounded=0;exitX=0.5;exitY=0;exitDx=0;exitDy=0;entryX=0.5;entryY=1;entryDx=0;entryDy=0;labelBackgroundColor=none;strokeColor=#9673a6;fontColor=default;fillColor=#e1d5e7;" edge="1" parent="1" source="xbHRxE1utlugfbBY3zVR-47" target="xbHRxE1utlugfbBY3zVR-49">
          <mxGeometry relative="1" as="geometry">
            <mxPoint x="360" y="350" as="sourcePoint" />
            <mxPoint x="150" y="110" as="targetPoint" />
          </mxGeometry>
        </mxCell>
        <mxCell id="xbHRxE1utlugfbBY3zVR-52" value="STATUS" style="ellipse;whiteSpace=wrap;html=1;align=center;labelBackgroundColor=none;fillColor=#e1d5e7;strokeColor=#9673a6;" vertex="1" parent="1">
          <mxGeometry x="20" y="60" width="100" height="40" as="geometry" />
        </mxCell>
        <mxCell id="xbHRxE1utlugfbBY3zVR-53" value="" style="endArrow=none;html=1;rounded=0;exitX=0;exitY=0;exitDx=0;exitDy=0;labelBackgroundColor=none;strokeColor=#9673a6;fontColor=default;entryX=1;entryY=1;entryDx=0;entryDy=0;fillColor=#e1d5e7;" edge="1" parent="1" source="xbHRxE1utlugfbBY3zVR-47" target="xbHRxE1utlugfbBY3zVR-52">
          <mxGeometry relative="1" as="geometry">
            <mxPoint x="105" y="210" as="sourcePoint" />
            <mxPoint x="150" y="90" as="targetPoint" />
          </mxGeometry>
        </mxCell>
        <mxCell id="xbHRxE1utlugfbBY3zVR-54" value="INGRESS /&lt;br&gt;EGRESS" style="ellipse;whiteSpace=wrap;html=1;align=center;labelBackgroundColor=none;fillColor=#e1d5e7;strokeColor=#9673a6;" vertex="1" parent="1">
          <mxGeometry x="20" y="170" width="100" height="40" as="geometry" />
        </mxCell>
        <mxCell id="xbHRxE1utlugfbBY3zVR-55" value="" style="endArrow=none;html=1;rounded=0;exitX=0;exitY=0.75;exitDx=0;exitDy=0;entryX=1;entryY=0.5;entryDx=0;entryDy=0;labelBackgroundColor=none;strokeColor=#9673a6;fontColor=default;fillColor=#e1d5e7;" edge="1" parent="1" source="xbHRxE1utlugfbBY3zVR-47" target="xbHRxE1utlugfbBY3zVR-54">
          <mxGeometry relative="1" as="geometry">
            <mxPoint x="150" y="210" as="sourcePoint" />
            <mxPoint x="520" y="410" as="targetPoint" />
          </mxGeometry>
        </mxCell>
        <mxCell id="xbHRxE1utlugfbBY3zVR-56" value="INGRESS /&lt;br&gt;EGRESS" style="ellipse;whiteSpace=wrap;html=1;align=center;labelBackgroundColor=none;fillColor=#e1d5e7;strokeColor=#9673a6;" vertex="1" parent="1">
          <mxGeometry x="20" y="220" width="100" height="40" as="geometry" />
        </mxCell>
        <mxCell id="xbHRxE1utlugfbBY3zVR-57" value="" style="endArrow=none;html=1;rounded=0;exitX=0;exitY=1;exitDx=0;exitDy=0;entryX=1;entryY=0;entryDx=0;entryDy=0;labelBackgroundColor=none;strokeColor=#9673a6;fontColor=default;fillColor=#e1d5e7;" edge="1" parent="1" source="xbHRxE1utlugfbBY3zVR-47" target="xbHRxE1utlugfbBY3zVR-56">
          <mxGeometry relative="1" as="geometry">
            <mxPoint x="200" y="220" as="sourcePoint" />
            <mxPoint x="570" y="460" as="targetPoint" />
          </mxGeometry>
        </mxCell>
        <mxCell id="xbHRxE1utlugfbBY3zVR-58" value="CONCEPTS" style="ellipse;whiteSpace=wrap;html=1;align=center;labelBackgroundColor=none;fillColor=#e1d5e7;strokeColor=#9673a6;" vertex="1" parent="1">
          <mxGeometry x="130" y="220" width="100" height="40" as="geometry" />
        </mxCell>
        <mxCell id="xbHRxE1utlugfbBY3zVR-59" value="" style="endArrow=none;html=1;rounded=0;entryX=0.5;entryY=0;entryDx=0;entryDy=0;labelBackgroundColor=none;strokeColor=#9673a6;fontColor=default;exitX=0.25;exitY=1;exitDx=0;exitDy=0;fillColor=#e1d5e7;" edge="1" parent="1" source="xbHRxE1utlugfbBY3zVR-47" target="xbHRxE1utlugfbBY3zVR-58">
          <mxGeometry relative="1" as="geometry">
            <mxPoint x="180" y="200" as="sourcePoint" />
            <mxPoint x="655" y="490" as="targetPoint" />
          </mxGeometry>
        </mxCell>
        <mxCell id="xbHRxE1utlugfbBY3zVR-60" value="AMOUNT" style="ellipse;whiteSpace=wrap;html=1;align=center;labelBackgroundColor=none;fillColor=#e1d5e7;strokeColor=#9673a6;" vertex="1" parent="1">
          <mxGeometry x="20" y="10" width="100" height="40" as="geometry" />
        </mxCell>
        <mxCell id="xbHRxE1utlugfbBY3zVR-61" value="" style="endArrow=none;html=1;rounded=0;exitX=0.25;exitY=0;exitDx=0;exitDy=0;labelBackgroundColor=none;strokeColor=#9673a6;fontColor=default;entryX=1;entryY=1;entryDx=0;entryDy=0;fillColor=#e1d5e7;" edge="1" parent="1" source="xbHRxE1utlugfbBY3zVR-47" target="xbHRxE1utlugfbBY3zVR-60">
          <mxGeometry relative="1" as="geometry">
            <mxPoint x="194.64" y="120" as="sourcePoint" />
            <mxPoint x="119.64" y="74" as="targetPoint" />
          </mxGeometry>
        </mxCell>
        <mxCell id="xbHRxE1utlugfbBY3zVR-62" value="MAKE" style="shape=rhombus;perimeter=rhombusPerimeter;whiteSpace=wrap;html=1;align=center;labelBackgroundColor=none;fillColor=#0050ef;strokeColor=#001DBC;fontColor=#ffffff;" vertex="1" parent="1">
          <mxGeometry x="260" y="330" width="120" height="60" as="geometry" />
        </mxCell>
        <mxCell id="xbHRxE1utlugfbBY3zVR-64" value="" style="endArrow=none;html=1;rounded=0;exitX=1;exitY=0.25;exitDx=0;exitDy=0;entryX=0.5;entryY=1;entryDx=0;entryDy=0;labelBackgroundColor=none;strokeColor=#001DBC;fontColor=default;fillColor=#0050ef;" edge="1" parent="1" source="FDkysy2jenkWLIfKk26M-6" target="xbHRxE1utlugfbBY3zVR-62">
          <mxGeometry relative="1" as="geometry">
            <mxPoint x="260" y="430" as="sourcePoint" />
            <mxPoint x="430" y="120" as="targetPoint" />
            <Array as="points">
              <mxPoint x="320" y="430" />
            </Array>
          </mxGeometry>
        </mxCell>
        <mxCell id="xbHRxE1utlugfbBY3zVR-65" value="N" style="resizable=0;html=1;whiteSpace=wrap;align=right;verticalAlign=bottom;labelBackgroundColor=none;fillColor=#F2CC8F;strokeColor=#E07A5F;fontColor=#393C56;" connectable="0" vertex="1" parent="xbHRxE1utlugfbBY3zVR-64">
          <mxGeometry x="1" relative="1" as="geometry">
            <mxPoint y="20" as="offset" />
          </mxGeometry>
        </mxCell>
        <mxCell id="xbHRxE1utlugfbBY3zVR-67" value="" style="endArrow=none;html=1;rounded=0;exitX=1;exitY=1;exitDx=0;exitDy=0;entryX=0.5;entryY=0;entryDx=0;entryDy=0;labelBackgroundColor=none;strokeColor=#001DBC;fontColor=default;fillColor=#0050ef;" edge="1" parent="1" source="xbHRxE1utlugfbBY3zVR-47" target="xbHRxE1utlugfbBY3zVR-62">
          <mxGeometry relative="1" as="geometry">
            <mxPoint x="270" y="250" as="sourcePoint" />
            <mxPoint x="330" y="210" as="targetPoint" />
            <Array as="points">
              <mxPoint x="320" y="210" />
            </Array>
          </mxGeometry>
        </mxCell>
        <mxCell id="xbHRxE1utlugfbBY3zVR-68" value="1" style="resizable=0;html=1;whiteSpace=wrap;align=right;verticalAlign=bottom;labelBackgroundColor=none;fillColor=#F2CC8F;strokeColor=#E07A5F;fontColor=#393C56;" connectable="0" vertex="1" parent="xbHRxE1utlugfbBY3zVR-67">
          <mxGeometry x="1" relative="1" as="geometry">
            <mxPoint as="offset" />
          </mxGeometry>
        </mxCell>
        <mxCell id="xbHRxE1utlugfbBY3zVR-70" value="" style="endArrow=none;html=1;rounded=0;exitX=1;exitY=0.5;exitDx=0;exitDy=0;entryX=0.5;entryY=0;entryDx=0;entryDy=0;labelBackgroundColor=none;strokeColor=#001DBC;fontColor=default;fillColor=#0050ef;" edge="1" parent="1" source="xbHRxE1utlugfbBY3zVR-47" target="xbHRxE1utlugfbBY3zVR-73">
          <mxGeometry relative="1" as="geometry">
            <mxPoint x="270" y="370" as="sourcePoint" />
            <mxPoint x="330" y="400" as="targetPoint" />
            <Array as="points">
              <mxPoint x="340" y="200" />
              <mxPoint x="340" y="560" />
            </Array>
          </mxGeometry>
        </mxCell>
        <mxCell id="xbHRxE1utlugfbBY3zVR-71" value="1" style="resizable=0;html=1;whiteSpace=wrap;align=right;verticalAlign=bottom;labelBackgroundColor=none;fillColor=#F2CC8F;strokeColor=#E07A5F;fontColor=#393C56;" connectable="0" vertex="1" parent="xbHRxE1utlugfbBY3zVR-70">
          <mxGeometry x="1" relative="1" as="geometry">
            <mxPoint as="offset" />
          </mxGeometry>
        </mxCell>
        <mxCell id="xbHRxE1utlugfbBY3zVR-73" value="RECIEVES" style="shape=rhombus;perimeter=rhombusPerimeter;whiteSpace=wrap;html=1;align=center;labelBackgroundColor=none;fillColor=#0050ef;strokeColor=#001DBC;fontColor=#ffffff;" vertex="1" parent="1">
          <mxGeometry x="260" y="580" width="120" height="60" as="geometry" />
        </mxCell>
        <mxCell id="xbHRxE1utlugfbBY3zVR-74" value="" style="endArrow=none;html=1;rounded=0;exitX=1;exitY=0;exitDx=0;exitDy=0;entryX=0.5;entryY=1;entryDx=0;entryDy=0;labelBackgroundColor=none;strokeColor=#001DBC;fontColor=default;fillColor=#0050ef;" edge="1" parent="1" source="FDkysy2jenkWLIfKk26M-7" target="xbHRxE1utlugfbBY3zVR-73">
          <mxGeometry relative="1" as="geometry">
            <mxPoint x="260" y="620" as="sourcePoint" />
            <mxPoint x="430" y="310" as="targetPoint" />
            <Array as="points">
              <mxPoint x="310" y="740" />
              <mxPoint x="320" y="730" />
            </Array>
          </mxGeometry>
        </mxCell>
        <mxCell id="xbHRxE1utlugfbBY3zVR-75" value="N" style="resizable=0;html=1;whiteSpace=wrap;align=right;verticalAlign=bottom;labelBackgroundColor=none;fillColor=#F2CC8F;strokeColor=#E07A5F;fontColor=#393C56;" connectable="0" vertex="1" parent="xbHRxE1utlugfbBY3zVR-74">
          <mxGeometry x="1" relative="1" as="geometry">
            <mxPoint y="20" as="offset" />
          </mxGeometry>
        </mxCell>
        <mxCell id="xbHRxE1utlugfbBY3zVR-77" value="" style="endArrow=none;html=1;rounded=0;exitX=1;exitY=0.25;exitDx=0;exitDy=0;entryX=0.5;entryY=1;entryDx=0;entryDy=0;labelBackgroundColor=none;strokeColor=#001DBC;fontColor=default;fillColor=#0050ef;" edge="1" parent="1" source="FDkysy2jenkWLIfKk26M-118" target="xbHRxE1utlugfbBY3zVR-73">
          <mxGeometry relative="1" as="geometry">
            <mxPoint x="260" y="890" as="sourcePoint" />
            <mxPoint x="320" y="790" as="targetPoint" />
            <Array as="points">
              <mxPoint x="320" y="1030" />
            </Array>
          </mxGeometry>
        </mxCell>
        <mxCell id="xbHRxE1utlugfbBY3zVR-78" value="N" style="resizable=0;html=1;whiteSpace=wrap;align=right;verticalAlign=bottom;labelBackgroundColor=none;fillColor=#F2CC8F;strokeColor=#E07A5F;fontColor=#393C56;" connectable="0" vertex="1" parent="xbHRxE1utlugfbBY3zVR-77">
          <mxGeometry x="1" relative="1" as="geometry">
            <mxPoint x="20" y="20" as="offset" />
          </mxGeometry>
        </mxCell>
      </root>
    </mxGraphModel>
  </diagram>
</mxfile>
